<!DOCTYPE svg PUBLIC "-//W3C//DTD SVG 1.1//EN" "http://www.w3.org/Graphics/SVG/1.1/DTD/svg11.dtd">
<!-- Uploaded to: SVG Repo, www.svgrepo.com, Transformed by: SVG Repo Mixer Tools -->
<svg fill="#ffffff" height="800px" width="800px" version="1.1" id="Layer_1" xmlns="http://www.w3.org/2000/svg" xmlns:xlink="http://www.w3.org/1999/xlink" viewBox="0 0 298.784 298.784" xml:space="preserve" stroke="#ffffff">
<g id="SVGRepo_bgCarrier" stroke-width="0"/>
<g id="SVGRepo_tracerCarrier" stroke-linecap="round" stroke-linejoin="round"/>
<g id="SVGRepo_iconCarrier"> <g id="XMLID_1216_"> <g> <g> <path d="M181.274,169.075c-0.524-2.116-1.293-4.135-2.271-6.03l-22.207-9.782c-2.828-1.245-5.26-3.167-7.006-5.37 c-1.739,2.194-4.17,4.121-7.006,5.37l-23.236,10.236c-0.986,1.999-1.737,4.133-2.221,6.367c3.469,4.515,4.759,10.12,3.705,15.599 l-4.339,22.551v49.246c0,4.426,3.589,8.014,8.015,8.014c4.426,0,8.014-3.589,8.014-8.014v-81.503 c0-6.499,5.288-11.787,11.787-11.787c9.189,0,9.69,0,9.766,0c6.499,0,11.787,5.288,11.787,11.787v81.503 c0,4.427,3.589,8.014,8.015,8.014s8.014-3.589,8.014-8.014v-47.728l-5.078-23.66C175.73,179.898,177.273,173.767,181.274,169.075 z"/> <path d="M290.769,147.942h-2.527c-1.808,2.233-4.156,4.083-6.966,5.321l-23.236,10.236c-0.986,1.999-1.737,4.133-2.221,6.367 c3.469,4.515,4.759,10.12,3.705,15.599l-4.339,22.551v49.246c0,4.426,3.589,8.014,8.014,8.014s8.015-3.589,8.015-8.014v-81.503 c0-6.499,5.288-11.787,11.787-11.787h7.769c4.426,0,8.014-3.589,8.014-8.014C298.784,151.53,295.195,147.942,290.769,147.942z"/> <path d="M219.036,158.522c-1.507,4.415-4.509,7.973-8.441,10.204c2.239,2.476,3.866,5.533,4.599,8.951l1.869,8.705h2.516 l1.596-8.297c0.748-3.89,2.631-7.326,5.258-9.996C223.084,165.889,220.435,162.619,219.036,158.522z"/> <circle cx="219.09" cy="55.453" r="21.945"/> <path d="M214.614,212.188l-7.056-32.871c-1.359-6.328-7.587-10.358-13.913-8.997c-6.302,1.353-10.36,7.56-8.996,13.913 l15.088,70.292c1.16,5.405,5.931,9.258,11.468,9.258c-3.282-4.386-4.616-9.89-3.555-15.406L214.614,212.188z"/> <path d="M242.562,170.271c-6.354-1.223-12.496,2.937-13.718,9.29l-13.525,70.292c-1.223,6.354,2.937,12.495,9.29,13.718 c6.386,1.224,12.501-2.964,13.718-9.291l13.526-70.292C253.076,177.635,248.917,171.493,242.562,170.271z"/> <path d="M41.215,171.173c0.478-0.74,1.005-1.438,1.567-2.098c-0.524-2.116-1.293-4.135-2.271-6.03l-22.207-9.782 c-2.81-1.238-5.158-3.088-6.966-5.321H8.015c-4.426,0-8.015,3.589-8.015,8.014c0,4.426,3.589,8.015,8.015,8.015h7.769 c6.499,0,11.787,5.288,11.787,11.787v81.503c0,4.426,3.589,8.014,8.015,8.014s8.015-3.589,8.015-8.014v-47.728l-5.078-23.66 C37.426,180.773,38.383,175.553,41.215,171.173z"/> <path d="M80.544,158.522c-1.507,4.415-4.509,7.973-8.441,10.204c2.239,2.476,3.866,5.533,4.599,8.951l1.869,8.705h2.516 c1.609-8.361,1.849-13.205,6.855-18.292C84.592,165.889,81.943,162.619,80.544,158.522z"/> <path d="M21.557,145.881c41.93,18.47,36.58,16.119,37.278,16.408c6.38,2.98,11.749-0.707,13.741-5.504 c2.242-5.401-0.07-11.601-5.422-13.959l-27.517-12.121c3.137-7.208,7.125-15.98,10.755-23.445 c0.401-0.825,1.168-1.409,2.047-1.609v21.88l17.967,7.914c4.974,2.191,8.512,6.292,10.137,11.061 c1.625-4.769,5.163-8.87,10.137-11.061l17.842-7.86v-21.961c0.931,0.171,1.751,0.773,2.172,1.637 c3.649,7.505,7.638,16.284,10.754,23.444l-27.516,12.121c-5.351,2.358-7.697,8.572-5.422,13.959 c2.669,6.323,8.44,7.522,13.82,5.474c0.71-0.299,6.607-2.901,37.2-16.378c5.223-2.301,7.682-8.326,5.562-13.624 c-3.036-7.561-9.693-22.615-15.354-34.257c-4.019-8.267-12.558-13.608-21.753-13.608c-6.815,0-48.046,0-54.887,0 c-9.195,0-17.733,5.341-21.752,13.606c-5.836,12-12.429,26.971-15.354,34.258C13.875,137.555,16.334,143.58,21.557,145.881z"/> <circle cx="80.597" cy="55.453" r="21.945"/> <path d="M76.122,212.188l-7.056-32.871c-1.358-6.328-7.587-10.358-13.913-8.997c-6.302,1.353-10.36,7.56-8.996,13.913 l15.088,70.292c1.16,5.405,5.931,9.258,11.468,9.258c-3.283-4.386-4.616-9.89-3.555-15.406L76.122,212.188z"/> <path d="M104.071,170.271c-6.354-1.223-12.496,2.937-13.718,9.29l-13.526,70.292c-1.223,6.354,2.937,12.495,9.29,13.718 c6.386,1.224,12.501-2.964,13.718-9.291l13.526-70.292C114.585,177.635,110.425,171.493,104.071,170.271z"/> <path d="M160.049,145.881c41.93,18.47,36.58,16.119,37.278,16.408c5.346,2.215,11.433-0.266,13.741-5.504 c2.345-5.326-0.049-11.592-5.422-13.959c-5.427-2.391-21.856-9.627-27.517-12.121c3.137-7.208,7.125-15.98,10.755-23.445 c0.401-0.825,1.168-1.409,2.047-1.609v21.88l8.816,3.884v-12.312c0-0.912,0.434-1.769,1.168-2.309s1.682-0.699,2.553-0.428 l16.262,5.069l16.262-5.069c0.87-0.271,1.818-0.112,2.553,0.428s1.168,1.398,1.168,2.309v11.701l7.303-3.217v-21.961 c0.931,0.171,1.751,0.773,2.172,1.637c3.649,7.505,7.638,16.284,10.754,23.444c-25.088,11.051-18.071,7.96-27.516,12.121 c-4.468,1.968-6.885,6.649-6.194,11.255c1.041,6.943,8.359,10.919,14.731,8.126l37.061-16.325 c5.223-2.301,7.682-8.327,5.562-13.624c-3.052-7.604-9.717-22.667-15.354-34.257c-4.019-8.267-12.558-13.608-21.753-13.608 c-6.815,0-48.046,0-54.887,0c-9.195,0-17.733,5.341-21.752,13.606c-5.836,12-12.429,26.971-15.354,34.258 C152.391,137.495,154.801,143.568,160.049,145.881z"/> </g> </g> </g> </g>
</svg>